Coordinates
version=1
nRows=5
nColumns=40
inDegrees=yes

Units are S.I. units (second, meters, Newtons, ...)
Angles are in degrees.

endheader
time	pelvis_tilt	pelvis_list	pelvis_rotation	pelvis_tx	pelvis_ty	pelvis_tz	hip_flexion_r	hip_adduction_r	hip_rotation_r	knee_angle_r	knee_angle_r_beta	ankle_angle_r	subtalar_angle_r	mtp_angle_r	hip_flexion_l	hip_adduction_l	hip_rotation_l	knee_angle_l	knee_angle_l_beta	ankle_angle_l	subtalar_angle_l	mtp_angle_l	lumbar_extension	lumbar_bending	lumbar_rotation	arm_flex_r	arm_add_r	arm_rot_r	elbow_flex_r	pro_sup_r	wrist_flex_r	wrist_dev_r	arm_flex_l	arm_add_l	arm_rot_l	elbow_flex_l	pro_sup_l	wrist_flex_l	wrist_dev_l
      3.47250000	     -0.56956236	     -6.03968999	      3.69446320	      1.13097484	      0.92266156	      0.56055949	     11.25348796	      7.35269830	    -10.94322777	     23.60550660	     23.60550660	     15.03554535	     -8.02310525	     -2.89127067	     21.46762140	    -16.65177114	      3.05021530	     65.15941603	     65.15941603	      6.36869432	    -19.24616562	     17.03206037	     -9.23572924	      5.74856857	      1.38410109	     22.48455692	    -18.54060094	     -7.93882677	     53.81987916	     45.48760101	      0.00000000	      0.00000000	     -0.16526507	     -9.01457068	      5.23014273	     27.13740545	     45.87703849	      0.00000000	      0.00000000
      3.49471429	     -0.30244024	     -6.10477368	      4.42228074	      1.12955524	      0.92171129	      0.56119126	     11.08813493	      7.54042966	    -11.03071210	     24.13428648	     24.13428648	     15.48473300	     -9.04299838	     -2.60998990	     23.37525055	    -16.79820223	      3.42636718	     66.31736646	     66.31736646	      7.78338985	    -19.44080740	     20.36714017	     -9.50485822	      5.78505140	      1.51726052	     24.85623846	    -18.64115163	     -8.06057987	     55.76994968	     45.44057269	      0.00000000	      0.00000000	     -2.42392471	     -8.59438391	      6.27163880	     26.12520217	     45.65038541	      0.00000000	      0.00000000
      3.51692857	     -0.12360076	     -6.18789819	      5.21091450	      1.12795742	      0.92100246	      0.56146801	     10.89899268	      7.72050872	    -11.27245894	     24.39996511	     24.39996511	     15.78240492	     -9.87620008	     -2.51538029	     25.12468729	    -16.93581884	      3.63388380	     66.50508880	     66.50508880	      8.89140685	    -19.56274165	     21.17492274	     -9.70219503	      5.86348027	      1.53739232	     27.31384808	    -18.63183398	     -8.29047871	     57.53567196	     45.40161335	      0.00000000	      0.00000000	     -4.52185765	     -8.11716284	      6.70989604	     25.24297291	     45.53635327	      0.00000000	      0.00000000
      3.53914286	     -0.00449677	     -6.12374907	      6.02253938	      1.12623242	      0.92081546	      0.56127769	     10.61409059	      7.75180214	    -11.45047741	     24.37804266	     24.37804266	     16.01341147	    -10.71389394	     -2.15133071	     26.68709754	    -16.68407439	      3.81386668	     65.86950479	     65.86950479	     10.96906757	    -19.61688744	     23.80812058	     -9.87750543	      5.78522344	      1.78141415	     29.33105281	    -18.93247384	     -8.42808026	     59.83207141	     45.34418982	      0.00000000	      0.00000000	     -6.56874117	     -7.90671332	      7.97751494	     25.25281297	     45.25748784	      0.00000000	      0.00000000
      3.56135714	      0.00172128	     -6.04040918	      6.89849959	      1.12434444	      0.92102136	      0.56062914	     10.28622607	      7.68739852	    -11.91683423	     24.04772873	     24.04772873	     16.10870165	    -11.09973674	     -2.01022619	     28.00958722	    -16.25254823	      3.92094611	     64.18742237	     64.18742237	     12.35427391	    -19.64304539	     23.88929631	     -9.94112816	      5.70705400	      1.75954716	     31.57639207	    -18.96610388	     -8.67730621	     61.62105351	     45.30548779	      0.00000000	      0.00000000	     -8.32058279	     -7.58152192	      8.53873912	     24.82829795	     45.12390935	      0.00000000	      0.00000000
